<?xml version="1.0" standalone="no"?>
<!DOCTYPE svg PUBLIC "-//W3C//DTD SVG 20010904//EN"
 "http://www.w3.org/TR/2001/REC-SVG-20010904/DTD/svg10.dtd">
<svg version="1.0" xmlns="http://www.w3.org/2000/svg"
 width="300.000000pt" height="175.000000pt" viewBox="0 0 300.000000 175.000000"
 preserveAspectRatio="xMidYMid meet">
<metadata>
Created by potrace 1.10, written by Peter Selinger 2001-2011
</metadata>
<g transform="translate(0.000000,175.000000) scale(0.100000,-0.100000)"
fill="#0ee3d8" stroke="none">
<path d="M1988 1513 c-21 -5 -25 -52 -23 -260 1 -120 5 -166 15 -178 13 -15
14 -15 21 2 4 10 7 77 7 148 1 72 5 164 11 205 5 41 7 78 5 82 -5 8 -8 8 -36
1z"/>
<path d="M579 1485 c-9 -9 -39 -17 -74 -20 -33 -2 -65 -11 -75 -20 -35 -32 5
-105 80 -144 21 -11 40 -18 42 -15 7 6 69 -22 97 -44 33 -26 21 -53 -35 -81
-51 -26 -124 -39 -124 -24 0 6 7 30 15 53 14 40 13 73 -1 36 -4 -9 -20 -30
-36 -46 -35 -36 -32 -61 14 -104 27 -25 36 -27 72 -22 22 4 43 12 47 17 3 6 8
10 10 9 27 -11 119 75 119 112 0 31 -58 79 -146 122 -113 54 -144 88 -89 98
27 6 65 -23 65 -47 0 -22 31 -18 37 5 3 11 9 20 13 20 4 0 10 15 13 33 3 17 7
41 9 52 4 26 -31 32 -53 10z"/>
<path d="M1866 1475 c-3 -9 -18 -15 -36 -15 -49 0 -96 -25 -115 -61 -10 -19
-24 -47 -33 -63 -8 -16 -19 -43 -23 -60 l-7 -31 -1 30 c-2 46 -13 57 -57 53
-34 -3 -41 -8 -57 -40 -10 -20 -20 -59 -24 -88 -5 -40 -8 -48 -15 -35 -6 9
-25 32 -44 52 -33 34 -53 78 -40 90 9 10 18 -3 25 -39 10 -49 33 -41 48 17 19
73 17 85 -11 85 -13 0 -26 -7 -30 -15 -3 -8 -14 -15 -25 -15 -65 0 -68 -43 -7
-124 25 -32 42 -64 40 -71 -3 -7 -16 -17 -30 -24 -26 -12 -29 -9 -36 34 -3 16
-7 13 -22 -18 -23 -46 -30 -51 -47 -31 -10 13 -10 30 0 92 19 125 19 127 -8
127 -20 0 -26 -8 -37 -45 -20 -66 -16 -128 12 -172 23 -37 49 -49 56 -28 2 7
14 6 33 -4 43 -21 94 -8 121 31 20 30 21 30 30 9 14 -31 60 -51 90 -37 28 13
33 35 5 26 -25 -8 -51 19 -51 52 0 15 3 24 6 20 4 -3 23 2 43 13 37 18 37 18
38 -3 4 -51 78 -112 148 -123 51 -7 102 17 111 53 3 12 12 24 20 27 7 3 11 12
8 20 -4 11 -14 8 -49 -15 -58 -39 -122 -48 -154 -22 -14 11 -26 28 -29 39 -6
31 -9 108 -3 119 3 6 6 15 6 20 0 20 40 60 81 83 23 12 44 22 48 22 3 0 6 -24
6 -53 0 -30 3 -57 7 -60 10 -11 33 13 33 34 0 11 4 27 9 37 13 23 25 55 26 67
0 6 4 16 8 23 5 6 5 17 2 22 -10 16 -62 12 -69 -5z m-264 -219 c-3 -34 -7 -43
-18 -39 -9 3 -12 13 -9 27 4 11 9 29 11 39 10 33 19 17 16 -27z"/>
<path d="M1285 1431 c-10 -10 -4 -18 21 -30 15 -6 28 -10 29 -9 1 2 8 13 14
26 12 22 11 23 -24 20 -20 -1 -38 -4 -40 -7z"/>
<path d="M2060 1426 c0 -23 49 -40 62 -21 17 23 7 35 -27 35 -23 0 -35 -5 -35
-14z"/>
<path d="M2345 1431 c-10 -9 18 -31 40 -31 19 0 35 17 35 36 0 6 -69 1 -75 -5z"/>
<path d="M2555 1392 c-6 -4 -18 -19 -28 -34 -10 -16 -27 -28 -44 -30 -54 -6
-102 -143 -71 -201 21 -40 50 -58 88 -55 37 3 60 19 79 56 16 29 0 28 -29 -3
-25 -27 -73 -34 -86 -13 -16 25 -9 110 11 146 26 45 47 54 36 15 -4 -15 -5
-36 -3 -45 6 -28 29 -21 35 10 3 15 10 45 16 67 21 85 23 95 15 95 -5 0 -14
-4 -19 -8z"/>
<path d="M1035 1334 c-8 -9 -25 -34 -36 -55 -25 -50 -36 -49 -35 4 1 36 -2 42
-19 42 -19 0 -20 -6 -19 -113 1 -109 7 -131 34 -132 7 0 60 160 60 180 0 13 1
13 10 0 5 -8 10 -33 10 -55 0 -56 17 -112 37 -119 24 -10 27 -1 14 46 -6 24
-9 70 -7 103 6 105 -10 138 -49 99z"/>
<path d="M1192 1321 c-21 -24 -31 -28 -40 -19 -8 8 -15 8 -28 -3 -14 -11 -15
-25 -10 -89 11 -111 11 -113 30 -124 23 -15 35 6 38 64 2 53 4 68 13 98 10 31
25 27 25 -7 0 -17 4 -32 10 -36 12 -8 31 63 27 106 -3 45 -29 49 -65 10z"/>
<path d="M2252 1337 c-6 -6 -22 -32 -36 -57 l-26 -45 0 41 c0 40 -18 62 -40
49 -11 -7 -18 -65 -8 -71 4 -3 4 -13 -1 -23 -16 -29 -1 -130 20 -142 22 -11
26 -4 61 111 l23 75 5 -70 c4 -42 13 -81 24 -97 22 -34 51 -38 41 -7 -4 12 -9
67 -11 123 -2 55 -5 107 -6 114 -2 16 -33 16 -46 -1z"/>
<path d="M781 1326 c-17 -20 -41 -106 -41 -147 0 -26 8 -46 27 -68 42 -48 71
-40 117 31 9 15 14 44 13 81 -2 48 -6 62 -25 77 -12 10 -22 23 -22 29 0 16
-55 14 -69 -3z m59 -81 c10 -37 10 -52 -1 -82 -18 -47 -33 -51 -49 -14 -10 25
-9 39 5 86 10 30 21 55 25 55 4 0 13 -20 20 -45z"/>
<path d="M2052 1279 c-23 -99 -9 -187 34 -203 23 -9 28 -2 14 24 -15 29 -14
106 3 160 16 54 13 70 -17 70 -19 0 -24 -8 -34 -51z"/>
<path d="M2337 1266 c-9 -35 -17 -77 -17 -93 0 -33 44 -103 65 -103 17 0 20
17 4 22 -12 4 -15 89 -5 133 4 17 10 47 13 68 5 34 4 37 -19 37 -21 0 -26 -8
-41 -64z"/>
<path d="M1176 912 c-8 -15 -26 -34 -40 -42 -33 -17 -33 -37 -2 -52 14 -6 30
-24 37 -39 13 -33 46 -39 56 -11 7 19 41 52 54 52 5 0 6 -7 3 -15 -4 -8 -10
-15 -16 -15 -5 0 -6 -4 -3 -10 3 -5 1 -10 -6 -10 -7 0 -9 -3 -6 -7 4 -3 2 -12
-3 -19 -12 -14 -17 -150 -8 -209 15 -94 93 -236 138 -250 32 -10 56 11 70 60
21 73 69 84 90 20 25 -75 74 -106 103 -65 8 11 16 17 19 15 9 -9 97 -17 121
-11 35 9 81 58 96 102 12 37 11 47 -4 88 -19 48 -52 82 -90 92 -19 5 -21 12
-21 69 1 35 3 66 6 69 3 3 14 -8 25 -25 11 -16 23 -29 27 -29 4 0 23 15 43 34
36 35 46 66 21 66 -8 0 -23 11 -34 25 -11 14 -22 25 -25 25 -3 0 -22 -17 -42
-37 -35 -35 -38 -36 -47 -17 -37 68 -79 82 -172 59 -61 -15 -70 -15 -135 0
-54 14 -77 15 -100 7 -28 -10 -31 -9 -31 8 0 11 -12 25 -27 32 -15 7 -34 26
-41 41 -17 35 -38 34 -56 -1z m51 -54 c7 -9 4 -18 -8 -30 -16 -15 -18 -15 -33
1 -12 13 -13 20 -4 29 15 15 33 15 45 0z m218 -74 c43 -10 88 -8 143 6 70 18
96 9 117 -42 9 -24 19 -68 22 -99 5 -56 5 -56 -24 -62 -17 -3 -44 -18 -61 -32
-44 -37 -66 -115 -32 -115 5 0 18 20 29 45 22 49 48 65 106 65 50 0 92 -42 98
-99 5 -40 2 -48 -28 -78 -25 -25 -41 -33 -70 -33 -36 0 -74 14 -86 33 -9 12
-42 1 -35 -12 9 -15 -4 -40 -18 -35 -7 3 -18 23 -25 44 -27 92 -122 95 -161 5
-10 -23 -23 -46 -28 -49 -23 -14 -98 136 -113 229 -17 101 -5 180 32 218 31
31 44 32 134 11z m395 -33 c0 -6 -4 -13 -10 -16 -5 -3 -10 1 -10 9 0 9 5 16
10 16 6 0 10 -4 10 -9z"/>
<path d="M1412 658 c6 -18 28 -21 28 -4 0 9 -7 16 -16 16 -9 0 -14 -5 -12 -12z"/>
<path d="M1555 661 c-7 -12 12 -24 25 -16 11 7 4 25 -10 25 -5 0 -11 -4 -15
-9z"/>
<path d="M1430 574 c0 -13 51 -34 85 -34 19 0 55 27 55 42 0 3 -31 5 -70 4
-47 0 -70 -4 -70 -12z"/>
<path d="M1751 473 c-28 -31 -41 -38 -57 -32 -32 13 -44 10 -44 -10 0 -11 12
-23 30 -31 17 -7 30 -16 30 -21 0 -25 29 -4 45 32 11 23 31 47 47 55 31 16 33
37 4 42 -10 2 -33 -12 -55 -35z"/>
<path d="M1607 423 c-13 -12 -7 -33 8 -33 8 0 15 9 15 20 0 20 -11 26 -23 13z"/>
</g>
</svg>
