<?xml version="1.0" standalone="no"?>
<!DOCTYPE svg PUBLIC "-//W3C//DTD SVG 20010904//EN"
 "http://www.w3.org/TR/2001/REC-SVG-20010904/DTD/svg10.dtd">
<svg version="1.0" xmlns="http://www.w3.org/2000/svg"
 width="300.000000pt" height="175.000000pt" viewBox="0 0 300.000000 175.000000"
 preserveAspectRatio="xMidYMid meet">
<metadata>
Created by potrace 1.10, written by Peter Selinger 2001-2011
</metadata>
<g transform="translate(0.000000,175.000000) scale(0.100000,-0.100000)"
fill="#67ece7" stroke="none">
<path d="M1993 1513 c-23 -4 -23 -4 -23 -217 0 -201 4 -236 30 -236 3 0 4 57
3 127 -1 113 6 220 22 306 2 15 1 26 -3 26 -4 -1 -17 -4 -29 -6z"/>
<path d="M580 1480 c-16 -16 -33 -20 -80 -20 -52 0 -62 -3 -75 -24 -15 -22
-15 -27 0 -56 17 -33 97 -90 126 -90 19 0 102 -45 118 -63 32 -39 -134 -128
-176 -95 -9 8 -7 21 12 59 14 27 22 49 18 49 -5 -1 -25 -23 -46 -50 -37 -48
-38 -50 -22 -79 28 -55 78 -65 155 -30 62 28 110 76 110 110 0 41 -26 64 -126
113 -99 48 -124 68 -124 97 0 14 7 19 28 19 34 0 59 -18 64 -44 4 -23 28 -34
28 -13 0 8 7 20 16 28 9 7 13 21 10 33 -3 11 2 28 10 38 33 35 -11 53 -46 18z
m7 -66 c-2 -2 -12 -1 -22 2 -17 7 -17 8 1 21 17 12 19 12 22 -2 2 -9 2 -19 -1
-21z m102 -241 c-31 -41 -70 -69 -108 -79 -26 -7 -41 -8 -41 -1 0 5 -7 4 -15
-3 -10 -8 -15 -9 -15 -1 0 6 11 13 25 16 14 3 36 7 49 10 14 3 44 20 68 39 50
40 56 43 37 19z"/>
<path d="M1870 1476 c0 -13 -41 -26 -84 -26 -45 0 -109 -104 -122 -196 -12
-95 29 -156 123 -184 34 -11 45 -10 76 5 20 9 45 32 57 52 27 45 26 62 -3 35
-53 -50 -147 -67 -188 -33 -21 17 -24 28 -24 93 0 41 6 86 14 103 15 34 88 85
119 85 19 0 21 -6 19 -52 -1 -29 2 -54 7 -56 5 -2 20 30 33 70 13 40 29 78 35
85 15 18 0 33 -33 33 -18 0 -29 -5 -29 -14z m23 -46 c-4 -16 -9 -18 -19 -9
-10 8 -11 14 -1 24 16 17 26 10 20 -15z m-118 -20 c-10 -11 -21 -17 -24 -14
-3 3 3 12 13 20 28 20 32 17 11 -6z"/>
<path d="M1286 1431 c-3 -5 6 -17 20 -26 22 -14 28 -15 35 -4 16 26 9 39 -20
39 -17 0 -32 -4 -35 -9z"/>
<path d="M2063 1432 c-9 -6 -4 -13 17 -25 28 -17 29 -17 40 2 5 11 10 22 10
25 0 9 -53 7 -67 -2z"/>
<path d="M2351 1431 c-11 -7 -7 -12 16 -24 27 -14 30 -14 41 4 7 10 12 21 12
24 0 8 -54 5 -69 -4z"/>
<path d="M2558 1393 c-9 -2 -21 -16 -26 -31 -6 -18 -17 -28 -32 -29 -86 -7
-124 -194 -51 -250 29 -23 69 -15 109 21 20 19 34 38 30 42 -4 4 -22 -7 -40
-25 -56 -54 -98 -33 -98 49 0 51 13 92 38 123 26 30 34 20 27 -33 -6 -42 -4
-50 9 -50 10 0 16 9 17 23 1 42 24 123 41 144 11 13 0 21 -24 16z"/>
<path d="M1453 1356 c-4 -8 -19 -16 -33 -18 -64 -9 -65 -36 -5 -116 25 -33 45
-64 45 -69 0 -15 -35 -43 -53 -43 -12 0 -17 9 -17 33 l-1 32 -20 -38 c-20 -37
-20 -39 -2 -53 51 -38 142 7 128 64 -3 15 -22 43 -40 62 -38 40 -57 81 -45
100 11 18 30 3 30 -24 0 -12 6 -31 14 -42 16 -21 20 -16 30 42 3 18 8 43 12
58 5 22 3 26 -14 26 -12 0 -25 -6 -29 -14z"/>
<path d="M1037 1336 c-7 -8 -25 -39 -38 -70 -13 -31 -28 -56 -33 -56 -4 0 -5
24 -2 54 6 43 4 55 -8 59 -25 10 -30 -12 -27 -118 4 -133 26 -163 51 -68 16
62 41 136 50 146 4 5 9 -30 12 -78 4 -71 8 -90 26 -107 26 -27 36 -20 22 16
-5 15 -10 74 -10 132 0 83 -3 104 -14 104 -8 0 -21 -6 -29 -14z m23 -26 c0 -5
-5 -10 -11 -10 -5 0 -7 5 -4 10 3 6 8 10 11 10 2 0 4 -4 4 -10z m-97 -135 c-7
-21 -12 -19 -10 4 0 11 5 18 9 15 4 -3 5 -11 1 -19z"/>
<path d="M1222 1343 c-17 -7 -74 -91 -68 -101 3 -5 1 -22 -4 -38 -8 -29 -8
-28 -9 9 -1 21 3 47 9 57 7 13 6 21 -5 30 -9 7 -19 10 -22 6 -11 -11 -7 -137
6 -183 19 -68 37 -55 44 30 3 40 13 91 23 113 l17 39 7 -47 c7 -59 17 -70 24
-27 16 98 11 125 -22 112z"/>
<path d="M2259 1340 c-9 -5 -28 -36 -43 -69 -15 -33 -31 -63 -37 -66 -5 -4 -6
-11 -3 -17 4 -7 2 -8 -5 -4 -8 5 -9 12 -3 19 5 7 12 35 14 64 4 44 2 52 -14
56 -10 3 -20 2 -22 -1 -2 -4 -3 -56 -1 -116 2 -76 7 -111 16 -117 17 -10 29
-2 29 19 0 27 51 185 57 178 4 -4 8 -35 9 -70 3 -72 26 -136 49 -136 13 0 14
4 4 23 -8 13 -12 65 -12 135 1 114 -2 123 -38 102z"/>
<path d="M780 1319 c-44 -81 -43 -172 1 -215 l29 -28 28 21 c15 11 36 41 47
67 17 43 18 50 5 88 -15 40 -43 69 -56 56 -3 -4 -2 -13 2 -20 21 -33 20 -108
-2 -149 -19 -38 -36 -33 -48 14 -12 46 15 141 45 160 27 17 24 27 -11 27 -19
0 -33 -7 -40 -21z"/>
<path d="M1578 1329 c-19 -7 -32 -24 -45 -57 -39 -103 -11 -187 62 -187 23 0
40 5 43 13 3 9 -3 11 -20 7 -31 -7 -46 5 -54 41 -5 27 -3 30 38 44 43 15 43
15 44 65 1 80 -11 94 -68 74z m32 -69 c0 -27 -4 -50 -9 -50 -5 0 -17 -3 -27
-7 -14 -5 -16 -2 -10 23 11 46 28 84 37 84 5 0 9 -22 9 -50z"/>
<path d="M1282 1291 c-7 -21 -12 -68 -12 -103 0 -55 4 -69 25 -92 13 -14 29
-26 35 -26 15 0 12 8 -11 31 -18 18 -21 29 -15 74 3 28 12 70 19 91 16 45 12
64 -12 64 -12 0 -22 -13 -29 -39z"/>
<path d="M2066 1321 c-12 -19 -29 -148 -23 -173 4 -15 18 -40 31 -55 20 -22
27 -26 37 -15 11 10 10 12 -4 12 -25 0 -32 46 -18 120 7 36 15 77 18 93 4 22
2 27 -15 27 -12 0 -23 -4 -26 -9z"/>
<path d="M2342 1277 c-22 -96 -10 -177 30 -198 22 -12 40 -3 19 10 -26 16 -30
79 -10 152 20 74 19 89 -9 89 -13 0 -21 -14 -30 -53z"/>
<path d="M1180 915 c-5 -14 -23 -34 -40 -43 -37 -21 -38 -37 -3 -54 15 -7 34
-26 41 -41 15 -32 38 -35 47 -7 3 11 22 32 41 46 19 15 34 30 34 34 0 4 -13
13 -29 20 -16 6 -35 25 -41 41 -15 36 -37 37 -50 4z m45 -91 l-20 -20 -23 20
-22 20 21 22 20 22 23 -22 22 -21 -21 -21z"/>
<path d="M1312 820 c-113 -69 -96 -353 30 -495 46 -53 76 -46 103 23 31 81 80
83 106 4 6 -20 16 -43 22 -50 13 -17 47 -15 68 4 15 13 23 14 53 4 21 -6 50
-9 69 -5 136 30 159 203 35 270 -35 18 -36 21 -40 85 -4 84 -32 139 -82 164
-36 18 -39 18 -106 0 -65 -17 -73 -17 -138 -1 -86 21 -80 21 -120 -3z m102
-25 c62 -19 97 -19 170 0 53 14 61 14 82 0 39 -25 55 -59 61 -133 l6 -70 -31
-7 c-17 -3 -42 -15 -55 -25 -25 -20 -64 -96 -54 -106 11 -12 37 5 37 24 0 10
14 31 31 48 25 24 39 29 80 29 44 0 54 -4 80 -33 93 -104 -45 -247 -155 -161
-26 21 -58 17 -37 -4 7 -7 7 -14 0 -24 -19 -22 -34 -15 -48 25 -18 50 -49 82
-81 82 -37 0 -56 -18 -80 -73 -11 -28 -25 -47 -33 -45 -22 8 -77 101 -98 168
-40 126 -21 272 40 305 32 18 27 18 85 0z"/>
<path d="M1415 670 c-10 -17 12 -37 25 -24 8 8 6 15 -4 23 -10 9 -16 9 -21 1z"/>
<path d="M1552 658 c5 -15 28 -18 29 -3 0 6 -7 12 -17 13 -10 3 -15 -1 -12
-10z"/>
<path d="M1434 589 c-20 -33 81 -54 121 -26 28 21 11 38 -25 24 -22 -8 -38 -8
-60 0 -19 7 -32 8 -36 2z"/>
<path d="M1768 487 c-14 -12 -31 -32 -37 -44 -11 -22 -13 -22 -36 -7 -24 15
-45 12 -45 -7 0 -5 11 -14 25 -19 14 -5 28 -17 31 -25 10 -25 22 -17 44 25 11
22 31 47 45 56 26 17 34 44 13 44 -7 0 -25 -10 -40 -23z"/>
<path d="M1605 420 c-4 -6 -3 -16 3 -22 6 -6 12 -6 17 2 4 6 3 16 -3 22 -6 6
-12 6 -17 -2z"/>
<path d="M1805 800 c-3 -11 -15 -25 -26 -30 -24 -13 -25 -37 -1 -45 11 -3 24
-17 31 -31 l11 -26 41 41 c39 41 43 61 13 61 -8 0 -19 11 -24 25 -11 30 -36
33 -45 5z m45 -50 c0 -4 -6 -13 -14 -19 -11 -9 -15 -8 -20 5 -3 9 -4 20 -1 24
6 10 35 2 35 -10z"/>
</g>
</svg>
